<?xml version="1.0" encoding="UTF-8"?>
<svg version="1.1" xmlns="http://www.w3.org/2000/svg" width="512" height="512">
<path d="M0 0 C1.01790619 0.00215515 2.03581238 0.0043103 3.08456421 0.00653076 C17.69363523 0.05620146 32.02575853 0.30709809 46.375 3.3125 C47.34985352 3.51117676 48.32470703 3.70985352 49.32910156 3.91455078 C97.7109774 14.03517194 141.69928269 35.9516877 177.375 70.3125 C178.3640332 71.26068604 178.3640332 71.26068604 179.37304688 72.22802734 C188.86130305 81.37247479 197.6012044 90.66984009 205.375 101.3125 C206.23306152 102.46355017 207.09113451 103.61459177 207.94921875 104.765625 C213.98677396 112.95525981 219.36957302 121.45788276 224.375 130.3125 C224.7771875 131.01971191 225.179375 131.72692383 225.59375 132.45556641 C238.6191741 155.59095836 247.36801461 180.76212409 252.6875 206.75 C252.83485596 207.46889404 252.98221191 208.18778809 253.1340332 208.9284668 C256.10789088 224.57475609 256.74800362 240.04818046 256.6875 255.9375 C256.68534485 256.95540619 256.6831897 257.97331238 256.68096924 259.02206421 C256.63129854 273.63113523 256.38040191 287.96325853 253.375 302.3125 C253.07698486 303.77478027 253.07698486 303.77478027 252.77294922 305.26660156 C242.5150588 354.30469644 220.16131321 398.23483876 185.375 434.3125 C184.75963379 434.95509766 184.14426758 435.59769531 183.51025391 436.25976562 C174.68386647 445.43586539 165.64391996 453.78566554 155.375 461.3125 C154.52107666 461.94961914 154.52107666 461.94961914 153.64990234 462.59960938 C144.90908179 469.11518015 135.86413672 474.94838547 126.375 480.3125 C125.66778809 480.7146875 124.96057617 481.116875 124.23193359 481.53125 C98.02919713 496.28361537 69.08869203 505.81885806 39.375 510.3125 C38.25254883 510.48910156 37.13009766 510.66570312 35.97363281 510.84765625 C24.36052257 512.5045586 12.84320055 512.71123513 1.125 512.6875 C-0.39302216 512.68668427 -0.39302216 512.68668427 -1.94171143 512.68585205 C-18.47030572 512.64511956 -34.40413999 511.74174222 -50.625 508.3125 C-51.66688477 508.09287598 -52.70876953 507.87325195 -53.78222656 507.64697266 C-100.71465356 497.40993664 -143.09026912 474.61110982 -177.625 441.3125 C-178.58889648 440.38945068 -178.58889648 440.38945068 -179.57226562 439.44775391 C-188.74836539 430.62136647 -197.09816554 421.58141996 -204.625 411.3125 C-205.26211914 410.45857666 -205.26211914 410.45857666 -205.91210938 409.58740234 C-212.42768015 400.84658179 -218.26088547 391.80163672 -223.625 382.3125 C-224.0271875 381.60528809 -224.429375 380.89807617 -224.84375 380.16943359 C-237.8691741 357.03404164 -246.61801461 331.86287591 -251.9375 305.875 C-252.08485596 305.15610596 -252.23221191 304.43721191 -252.3840332 303.6965332 C-255.35789088 288.05024391 -255.99800362 272.57681954 -255.9375 256.6875 C-255.93534485 255.66959381 -255.9331897 254.65168762 -255.93096924 253.60293579 C-255.88129854 238.99386477 -255.63040191 224.66174147 -252.625 210.3125 C-252.42632324 209.33764648 -252.22764648 208.36279297 -252.02294922 207.35839844 C-241.90232806 158.9765226 -219.9858123 114.98821731 -185.625 79.3125 C-184.99287598 78.65314453 -184.36075195 77.99378906 -183.70947266 77.31445312 C-174.56502521 67.82619695 -165.26765991 59.0862956 -154.625 51.3125 C-153.47394983 50.45443848 -152.32290823 49.59636549 -151.171875 48.73828125 C-142.98224019 42.70072604 -134.47961724 37.31792698 -125.625 32.3125 C-124.91778809 31.9103125 -124.21057617 31.508125 -123.48193359 31.09375 C-100.34654164 18.0683259 -75.17537591 9.31948539 -49.1875 4 C-48.46860596 3.85264404 -47.74971191 3.70528809 -47.0090332 3.5534668 C-31.36274391 0.57960912 -15.88931954 -0.06050362 0 0 Z M-61.625 187.3125 C-62.53121094 188.12460938 -63.43742187 188.93671875 -64.37109375 189.7734375 C-80.83356342 205.34542684 -91.88200783 227.83152399 -92.86328125 250.640625 C-93.22818771 266.84841584 -90.82008574 281.64962847 -83.625 296.3125 C-83.17253906 297.24449219 -82.72007812 298.17648437 -82.25390625 299.13671875 C-71.4695281 320.09172995 -52.18070344 336.64068199 -29.71142578 343.93359375 C-3.41144446 351.83714817 20.90410447 348.86811687 45.125 336.5 C66.69408399 324.21138242 82.03078793 303.19897969 88.6328125 279.44921875 C94.71627282 253.73859433 90.56913446 229.16283155 77.125 206.5625 C72.86822544 200.21551551 67.72235366 194.73591843 62.375 189.3125 C61.64410156 188.56871094 60.91320312 187.82492188 60.16015625 187.05859375 C43.51093734 171.21548227 19.71607477 163.74778372 -2.90234375 163.95874023 C-24.60622563 164.61593752 -45.42538585 172.78162582 -61.625 187.3125 Z " fill="#FF3377" transform="translate(255.625,-0.3125)"/>
<path d="M0 0 C0 54.12 0 108.24 0 164 C-6.93 164.99 -13.86 165.98 -21 167 C-35.99597946 171.16554985 -49.40907888 177.49815872 -61 188 C-61.83015625 188.73734375 -62.6603125 189.4746875 -63.515625 190.234375 C-79.6626115 205.39074883 -90.28412434 228.14933056 -91.23828125 250.328125 C-91.60318771 266.53591584 -89.19508574 281.33712847 -82 296 C-81.54753906 296.93199219 -81.09507812 297.86398437 -80.62890625 298.82421875 C-77.16268495 305.55939672 -72.84363313 311.20622988 -68 317 C-67.01 318.32 -66.02 319.64 -65 321 C-102.95 358.95 -140.9 396.9 -180 436 C-190.26501322 430.86749339 -197.2370505 420.02370001 -204 411 C-204.43489746 410.42056641 -204.86979492 409.84113281 -205.31787109 409.24414062 C-211.82115534 400.51390694 -217.64379142 391.47515107 -223 382 C-223.4021875 381.29278809 -223.804375 380.58557617 -224.21875 379.85693359 C-237.2441741 356.72154164 -245.99301461 331.55037591 -251.3125 305.5625 C-251.45985596 304.84360596 -251.60721191 304.12471191 -251.7590332 303.3840332 C-254.73289088 287.73774391 -255.37300362 272.26431954 -255.3125 256.375 C-255.31034485 255.35709381 -255.3081897 254.33918762 -255.30596924 253.29043579 C-255.25629854 238.68136477 -255.00540191 224.34924147 -252 210 C-251.80132324 209.02514648 -251.60264648 208.05029297 -251.39794922 207.04589844 C-241.27732806 158.6640226 -219.3608123 114.67571731 -185 79 C-184.36787598 78.34064453 -183.73575195 77.68128906 -183.08447266 77.00195312 C-173.94002521 67.51369695 -164.64265991 58.7737956 -154 51 C-152.84894983 50.14193848 -151.69790823 49.28386549 -150.546875 48.42578125 C-142.35724019 42.38822604 -133.85461724 37.00542698 -125 32 C-124.29278809 31.5978125 -123.58557617 31.195625 -122.85693359 30.78125 C-96.92679408 16.18235905 -68.33364119 6.80848532 -39 2 C-37.93289795 1.82428467 -37.93289795 1.82428467 -36.84423828 1.64501953 C-24.43948786 -0.30508489 -12.71482989 0 0 0 Z " fill="#00DA26" transform="translate(255,0)"/>
<path d="M0 0 C66.87631967 0 129.57653768 23.36128815 178 70 C178.9890332 70.94818604 178.9890332 70.94818604 179.99804688 71.91552734 C189.48630305 81.05997479 198.2262044 90.35734009 206 101 C206.85806152 102.15105017 207.71613451 103.30209177 208.57421875 104.453125 C214.61177396 112.64275981 219.99457302 121.14538276 225 130 C225.60328125 131.06081787 225.60328125 131.06081787 226.21875 132.14306641 C240.81981055 158.0770595 250.18199681 186.66483064 255 216 C255.11714355 216.70608398 255.23428711 217.41216797 255.35498047 218.13964844 C257.37561519 230.87595226 257 242.9388711 257 256 C202.55 256 148.1 256 92 256 C90.515 246.1 90.515 246.1 89 236 C84.72383178 219.75056076 78.37860658 206.48822247 67 194 C66.37609375 193.29488281 65.7521875 192.58976563 65.109375 191.86328125 C47.61882088 173.1601467 24.67844166 167.08480521 0 164 C0 109.88 0 55.76 0 0 Z " fill="#FEDE46" transform="translate(255,0)"/>
<path d="M0 0 C3.33493589 1.66746795 4.83963295 2.65846645 7.375 5.125 C23.76486721 19.74792985 44.83348091 24.35418511 66 27 C66 81.12 66 135.24 66 191 C40.36647864 191 40.36647864 191 30.125 189.375 C28.37219727 189.10876831 28.37219727 189.10876831 26.58398438 188.8371582 C-22.51056326 181.00582031 -68.44725048 159.24410298 -105.125 125.625 C-105.65762451 125.13717041 -106.19024902 124.64934082 -106.73901367 124.14672852 C-109.84476754 121.24266643 -112.31201565 118.35998044 -115 115 C-77.05 77.05 -39.1 39.1 0 0 Z " fill="#C231C7" transform="translate(189,321)"/>
<path d="M0 0 C53.79 0 107.58 0 163 0 C163.99 6.93 164.98 13.86 166 21 C170.24741319 36.2906875 176.67160337 48.97692188 187 61 C187.99 62.32 188.98 63.64 190 65 C152.05 102.95 114.1 140.9 75 180 C64.73498678 174.86749339 57.7629495 164.02370001 51 155 C50.56510254 154.42056641 50.13020508 153.84113281 49.68212891 153.24414062 C43.17884466 144.51390694 37.35620858 135.47515107 32 126 C31.5978125 125.29278809 31.195625 124.58557617 30.78125 123.85693359 C16.18018945 97.9229405 6.81800319 69.33516936 2 40 C1.88285645 39.29391602 1.76571289 38.58783203 1.64501953 37.86035156 C-0.37561519 25.12404774 0 13.0611289 0 0 Z " fill="#184D80" transform="translate(0,256)"/>
<path d="M0 0 C3.65544568 1.5397666 5.98265286 3.73594764 8.77093506 6.53042603 C9.46822373 7.22515143 9.46822373 7.22515143 10.17959905 7.93391168 C11.73357279 9.48459534 13.28029752 11.04231113 14.82714844 12.60009766 C15.94059514 13.71410858 17.05448258 14.82767915 18.16877747 15.94084167 C21.19153403 18.96302414 24.20808206 21.99133586 27.22356319 25.02077532 C30.37636236 28.18607221 33.53482159 31.34571082 36.69268799 34.50595093 C42.67124494 40.49072545 48.64468511 46.48058023 54.6163094 52.47227132 C61.41522889 59.29354114 68.21982445 66.10913663 75.02490568 72.92425847 C89.02293437 86.94319545 103.01381006 100.96925255 117 115 C116.59406616 115.46715424 116.18813232 115.93430847 115.76989746 116.4156189 C115.23417114 117.03562775 114.69844482 117.6556366 114.14648438 118.29443359 C113.61680054 118.90596283 113.0871167 119.51749207 112.54138184 120.14755249 C97.96908507 137.66067885 92.79114032 157.67087747 90 180 C36.21 180 -17.58 180 -73 180 C-73 112.85177886 -48.67693049 49.16913879 -1.1875 1.16796875 C-0.795625 0.78253906 -0.40375 0.39710937 0 0 Z " fill="#33DDFE" transform="translate(73,76)"/>
<path d="M0 0 C27.72 0 55.44 0 84 0 C84 63.9886725 62.09112891 124.70434783 18.625 172.125 C18.13717041 172.65762451 17.64934082 173.19024902 17.14672852 173.73901367 C14.24266643 176.84476754 11.35998044 179.31201565 8 182 C-11.14 162.86 -30.28 143.72 -50 124 C-48.20302124 120.40604249 -46.84257771 118.62464543 -44.125 115.8125 C-14.60280584 83.48996909 -2.14876195 42.97523897 0 0 Z " fill="#E50048" transform="translate(428,256)"/>
<path d="M0 0 C1.09963903 0.93670148 2.19842958 1.87439908 3.296875 2.8125 C4.21484863 3.59560547 4.21484863 3.59560547 5.15136719 4.39453125 C21.16549461 18.30220451 33.62187709 37.64106552 44 56 C44.60328125 57.06081787 44.60328125 57.06081787 45.21875 58.14306641 C59.81981055 84.0770595 69.18199681 112.66483064 74 142 C74.11714355 142.70608398 74.23428711 143.41216797 74.35498047 144.13964844 C76.37561519 156.87595226 76 168.9388711 76 182 C48.28 182 20.56 182 -8 182 C-8.33 175.4 -8.66 168.8 -9 162 C-9.51100783 158.30299029 -10.03205607 154.80776737 -10.8125 151.1875 C-10.99135742 150.31625488 -11.17021484 149.44500977 -11.35449219 148.54736328 C-11.88250162 146.02655904 -12.43619433 143.51300689 -13 141 C-13.14808105 140.31599121 -13.29616211 139.63198242 -13.44873047 138.92724609 C-20.12799319 108.63505225 -37.46995963 82.65576662 -58 60 C-56.3993244 56.02473776 -53.62856444 53.35979696 -50.63232422 50.40527344 C-50.08583221 49.85848938 -49.53934021 49.31170532 -48.97628784 48.74835205 C-47.17378907 46.94724351 -45.36431604 45.15331753 -43.5546875 43.359375 C-42.30157633 42.10999505 -41.04890681 40.86017199 -39.79666138 39.60992432 C-36.50324045 36.32413128 -33.20385709 33.0443893 -29.90319824 29.76586914 C-26.53471006 26.41785747 -23.1718924 23.06416093 -19.80859375 19.7109375 C-13.21126824 13.13504704 -6.60763017 6.56553484 0 0 Z " fill="#FF9933" transform="translate(436,74)"/>
<path d="M0 0 C0 26.73 0 53.46 0 81 C-6.93 81.99 -13.86 82.98 -21 84 C-37.32392049 88.53442236 -52.07078286 95.73102667 -64 108 C-67.93467549 106.40752446 -70.57577776 103.69337631 -73.50292969 100.72412109 C-74.03996017 100.18738266 -74.57699066 99.65064423 -75.1302948 99.09764099 C-76.89893859 97.32760717 -78.66039824 95.55060143 -80.421875 93.7734375 C-81.64883466 92.54274656 -82.87623749 91.3124973 -84.10406494 90.08267212 C-87.33067488 86.84843484 -90.55123291 83.60823592 -93.77056885 80.36676025 C-97.05825672 77.05859466 -100.35163068 73.75610054 -103.64453125 70.453125 C-110.10193298 63.97428921 -116.55295568 57.48914131 -123 51 C-122.0592905 49.88743 -121.1163974 48.77670609 -120.17260742 47.66674805 C-119.64777267 47.04801315 -119.12293793 46.42927826 -118.5821991 45.79179382 C-89.8689069 13.27483707 -41.35280394 0 0 0 Z " fill="#92E300" transform="translate(255,83)"/>
<path d="M0 0 C3.33493589 1.66746795 4.83963295 2.65846645 7.375 5.125 C23.76486721 19.74792985 44.83348091 24.35418511 66 27 C66 53.73 66 80.46 66 108 C41.66233766 108 41.66233766 108 29 105 C27.73285156 104.73316406 26.46570313 104.46632813 25.16015625 104.19140625 C-1.7331524 98.31187015 -26.14077651 84.68818823 -47.125 67.1875 C-47.92429932 66.5214978 -47.92429932 66.5214978 -48.73974609 65.84204102 C-51.98511029 63.06484853 -54.2746947 60.40663163 -57 57 C-38.19 38.19 -19.38 19.38 0 0 Z " fill="#ED60EA" transform="translate(189,321)"/>
<path d="M0 0 C29.91799509 25.64399579 45.53999959 64.77999714 51 103 C51 109.6 51 116.2 51 123 C24.27 123 -2.46 123 -30 123 C-30.99 116.4 -31.98 109.8 -33 103 C-36.99387297 87.82328271 -42.70463622 75.07888819 -53.1171875 63.26953125 C-55 61 -55 61 -57 57 C-38.19 38.19 -19.38 19.38 0 0 Z " fill="#FFC34D" transform="translate(377,133)"/>
<path d="M0 0 C26.73 0 53.46 0 81 0 C81 23.22221541 81 23.22221541 79.4375 30.3125 C79.26041504 31.16457031 79.08333008 32.01664062 78.90087891 32.89453125 C71.29113849 67.88535102 55.45068346 97.04065735 31 123 C24.30470134 117.50280742 18.26303509 111.39046848 12.16015625 105.2578125 C11.02694801 104.12273594 9.89351638 102.98788237 8.75987244 101.85324097 C5.79691665 98.88649256 2.83697807 95.91675198 -0.12231445 92.9463501 C-3.15066856 89.9077114 -6.18190499 86.87195091 -9.21289062 83.8359375 C-15.14473089 77.8934174 -21.07338261 71.947729 -27 66 C-25.36176125 62.54990727 -23.40766281 60.05991026 -20.875 57.1875 C-6.86958691 40.20987706 -3.27043175 21.80287834 0 0 Z " fill="#FE3377" transform="translate(347,256)"/>
<path d="M0 0 C3.93467549 1.59247554 6.57577776 4.30662369 9.50292969 7.27587891 C10.03996017 7.81261734 10.57699066 8.34935577 11.1302948 8.90235901 C12.89893859 10.67239283 14.66039824 12.44939857 16.421875 14.2265625 C17.64883466 15.45725344 18.87623749 16.6875027 20.10406494 17.91732788 C23.33067488 21.15156516 26.55123291 24.39176408 29.77056885 27.63323975 C33.05825672 30.94140534 36.35163068 34.24389946 39.64453125 37.546875 C46.10193298 44.02571079 52.55295568 50.51085869 59 57 C58.59406616 57.46715424 58.18813232 57.93430847 57.76989746 58.4156189 C57.23417114 59.03562775 56.69844482 59.6556366 56.14648438 60.29443359 C55.61680054 60.90596283 55.0871167 61.51749207 54.54138184 62.14755249 C39.96908507 79.66067885 34.79114032 99.67087747 32 122 C4.94 122 -22.12 122 -50 122 C-50 113.1078485 -49.75712347 105.10477311 -48.375 96.4375 C-48.19606201 95.31126221 -48.01712402 94.18502441 -47.83276367 93.0246582 C-41.96883884 58.11068654 -25.42817805 24.8492528 0 0 Z " fill="#98EDFE" transform="translate(131,134)"/>
<path d="M0 0 C27.06 0 54.12 0 82 0 C82.99 6.93 83.98 13.86 85 21 C89.24741319 36.2906875 95.67160337 48.97692188 106 61 C106.99 62.32 107.98 63.64 109 65 C90.19 83.81 71.38 102.62 52 122 C37.41988335 114.70994167 27.36114125 94.66506388 19.97119141 80.80761719 C19.13278364 79.2471418 18.26262987 77.70379972 17.38671875 76.1640625 C4.8541338 53.12572575 0 25.93217312 0 0 Z " fill="#0064A2" transform="translate(81,256)"/>
<path d="M0 0 C6.69529866 5.49719258 12.73696491 11.60953152 18.83984375 17.7421875 C19.97305199 18.87726406 21.10648362 20.01211763 22.24012756 21.14675903 C25.20308335 24.11350744 28.16302193 27.08324802 31.12231445 30.0536499 C34.15066856 33.0922886 37.18190499 36.12804909 40.21289062 39.1640625 C46.14473089 45.1065826 52.07338261 51.052271 58 57 C50.99817926 71.86412483 29.02914799 82.74547678 15 90 C14.38688965 90.31952637 13.7737793 90.63905273 13.14208984 90.96826172 C-11.12073224 103.43529869 -36.92627045 108 -64 108 C-64 81.27 -64 54.54 -64 27 C-53.605 25.515 -53.605 25.515 -43 24 C-26.46942195 19.40817276 -12.20315345 12.20315345 0 0 Z " fill="#FF5BA7" transform="translate(319,321)"/>
<path d="M0 0 C38.56732387 0 75.53036819 10.39094833 106 35 C106.62825684 35.5062793 107.25651367 36.01255859 107.90380859 36.53417969 C109.86641414 38.13190782 111.81227751 39.74720393 113.75 41.375 C114.34756104 41.87515625 114.94512207 42.3753125 115.56079102 42.890625 C118.60095845 45.51612335 120.16674946 47.33349893 122 51 C103.19 69.81 84.38 88.62 65 108 C56.82439024 101.86829268 56.82439024 101.86829268 53.0625 98.625 C37.65677763 86.66634115 18.89090251 83.36136281 0 81 C0 54.27 0 27.54 0 0 Z " fill="#FFF274" transform="translate(255,83)"/>
</svg>
