<?xml version="1.0" encoding="UTF-8"?>
<svg version="1.1" xmlns="http://www.w3.org/2000/svg" width="512" height="512">
<path d="M0 0 C1.09394577 -0.01022186 2.18789154 -0.02044373 3.31498718 -0.03097534 C6.90968074 -0.05863822 10.50360171 -0.05686357 14.09838867 -0.05224609 C16.61268902 -0.06002763 19.12698676 -0.06869854 21.64128113 -0.07821655 C26.90414936 -0.09311354 32.16681995 -0.092858 37.4296875 -0.08203125 C43.48470865 -0.06996496 49.53879875 -0.09455417 55.59366113 -0.13717139 C61.45153245 -0.17686277 67.30904338 -0.18272598 73.16702843 -0.17570114 C75.6439908 -0.17672329 78.12096873 -0.18711815 80.59784889 -0.20732498 C106.65604293 -0.39382188 106.65604293 -0.39382188 116.58552551 8.17269897 C123.59600533 15.48981581 125.29882593 23.9513461 125.24975586 33.76049805 C125.26009354 34.84445862 125.27043121 35.92841919 125.28108215 37.04522705 C125.31039519 40.60012929 125.31200695 44.15445932 125.31323242 47.70947266 C125.32822175 50.18526793 125.34495047 52.66105323 125.36334229 55.13682556 C125.40694293 61.6321154 125.42699897 68.12727034 125.44207764 74.62268066 C125.46167482 81.25912054 125.50364192 87.89539307 125.54370117 94.53173828 C125.61892456 107.53754839 125.67002427 120.54333611 125.70385742 133.54931641 C136.46095899 115.13407824 136.46095899 115.13407824 147.14135742 96.67431641 C147.75060059 95.61752686 148.35984375 94.5607373 148.98754883 93.47192383 C152.21794541 87.86813247 155.44431415 82.26203615 158.66870117 76.65478516 C169.97735044 56.99817426 169.97735044 56.99817426 174.82885742 48.79931641 C175.47081055 47.71134766 176.11276367 46.62337891 176.77416992 45.50244141 C182.30348263 37.04057823 188.65530227 32.16717269 198.61401367 29.88134766 C209.77140757 28.547482 217.76730187 32.26336875 227.26635742 37.79931641 C228.90229858 38.73432983 228.90229858 38.73432983 230.57128906 39.68823242 C233.95675264 41.62852944 237.3315143 43.58631809 240.70385742 45.54931641 C241.72060547 46.13890137 242.73735352 46.72848633 243.78491211 47.3359375 C248.72339398 50.20090572 253.65401202 53.07894513 258.57885742 55.96728516 C263.9642893 59.12302965 269.36730275 62.24738323 274.77685547 65.36157227 C277.00104248 66.64256583 279.22388742 67.92589274 281.4453125 69.21166992 C286.2245306 71.97774536 291.00790662 74.72911258 295.84057617 77.40087891 C305.87744112 83.00277623 315.32121636 88.80956214 318.70385742 100.54931641 C321.79991588 115.96131327 315.04138258 127.32999945 307.26538086 139.97314453 C304.26258334 144.92710316 301.40055972 149.96322714 298.51635742 154.98681641 C297.22623804 157.226541 295.93587015 159.46612246 294.64526367 161.70556641 C293.9957373 162.83349609 293.34621094 163.96142578 292.67700195 165.12353516 C289.43855934 170.74613188 286.1962887 176.36651919 282.95385742 181.98681641 C282.02718262 183.59327026 282.02718262 183.59327026 281.08178711 185.23217773 C275.63251914 194.67704387 270.17125248 204.11493409 264.70385742 213.54931641 C271.90416962 210.07215913 278.82291553 206.24274112 285.70385742 202.17431641 C287.83112266 200.92504119 289.958739 199.67636366 292.08666992 198.42822266 C293.17753906 197.78771973 294.2684082 197.1472168 295.39233398 196.48730469 C301.84615092 192.71036582 308.3288324 188.98346725 314.80883789 185.25170898 C319.89238913 182.32399534 324.97484558 179.39456252 330.04891968 176.45045471 C331.82817567 175.41815238 333.6079802 174.38680207 335.38793945 173.35571289 C337.61915319 172.06279941 339.84936001 170.76814612 342.07836914 169.47143555 C363.72818092 156.93905523 363.72818092 156.93905523 377.43041992 160.19775391 C391.55949342 165.31571551 397.79814909 177.67355918 404.70385742 190.11181641 C409.25643162 198.23878543 413.87181472 206.32330817 418.57885742 214.36181641 C419.74426492 216.3552809 420.90962894 218.34877082 422.07495117 220.34228516 C422.95836182 221.85314697 422.95836182 221.85314697 423.85961914 223.39453125 C424.46821777 224.43561035 425.07681641 225.47668945 425.70385742 226.54931641 C426.35241699 227.65871582 427.00097656 228.76811523 427.66918945 229.91113281 C431.52514237 236.51718399 435.34905521 243.13978864 439.12573242 249.79150391 C440.45997068 252.1231183 441.82455135 254.43180156 443.20385742 256.73681641 C448.44547562 266.0364616 449.58801453 274.89218954 447.03198242 285.27978516 C443.08032493 295.34957902 435.03346319 301.07745589 425.89135742 306.11181641 C423.73640173 307.33315685 421.58145409 308.5545115 419.42651367 309.77587891 C418.31679199 310.3975293 417.20707031 311.01917969 416.0637207 311.65966797 C410.62355314 314.71931751 405.22962351 317.85833383 399.82885742 320.98681641 C397.65605916 322.24007756 395.48287952 323.49267776 393.30932617 324.74462891 C392.22570801 325.36885742 391.14208984 325.99308594 390.02563477 326.63623047 C387.78382593 327.92733837 385.54196267 329.21835177 383.30004883 330.50927734 C379.91347073 332.45952089 376.52741093 334.41066225 373.14135742 336.36181641 C372.14442871 336.93536865 371.1475 337.5089209 370.12036133 338.09985352 C363.99549777 341.62949538 357.89324863 345.19559962 351.80175781 348.7824707 C351.01996407 349.242593 350.23817032 349.7027153 349.43268585 350.1767807 C347.52296768 351.30077479 345.61336069 352.42495727 343.70385742 353.54931641 C344.27516766 353.54893938 344.84647789 353.54856236 345.43510056 353.5481739 C359.38432009 353.54103365 373.33313369 353.56753982 387.28222275 353.6295948 C394.0281553 353.65899873 400.77377493 353.67744791 407.51977539 353.66943359 C414.0363797 353.66282159 420.55230078 353.68543355 427.06876373 353.72787094 C429.54847022 353.7389686 432.02824627 353.73973272 434.50795746 353.72974014 C460.69280355 353.63779092 460.69280355 353.63779092 470.58514404 362.1723938 C477.62162515 369.51624504 479.30123211 378.00288763 479.25317383 387.84545898 C479.26850662 389.48637764 479.26850662 389.48637764 479.28414917 391.16044617 C479.31181205 394.75513972 479.3100374 398.3490607 479.30541992 401.94384766 C479.31320146 404.458148 479.32187237 406.97244574 479.33139038 409.48674011 C479.34628737 414.74960834 479.34603182 420.01227894 479.33520508 425.27514648 C479.32313878 431.33016763 479.347728 437.38425773 479.39034522 443.43912011 C479.4300366 449.29699144 479.43589981 455.15450236 479.42887497 461.01248741 C479.42989712 463.48944979 479.44029197 465.96642772 479.46049881 468.44330788 C479.64699571 494.50150191 479.64699571 494.50150191 471.08047485 504.4309845 C469.37896353 506.06119091 467.67320819 507.26053646 465.70385742 508.54931641 C465.15927405 508.91273998 464.61469068 509.27616355 464.05360478 509.65059996 C455.89885202 514.10362409 446.41107741 513.10262096 437.40132141 513.05725098 C435.41379645 513.06186197 433.4262749 513.06821622 431.43876046 513.07615995 C425.98642822 513.09284859 420.53437626 513.08460893 415.08204305 513.07221508 C409.19857666 513.06316527 403.31515848 513.07713388 397.43170166 513.08813477 C385.91050321 513.10592425 374.38940896 513.10207833 362.86820642 513.0904842 C353.50681213 513.08131122 344.14544555 513.0801187 334.78404808 513.08457947 C334.11870468 513.08488501 333.45336129 513.08519055 332.76785597 513.08550535 C330.06698358 513.08675071 327.36611121 513.08802431 324.66523885 513.0893444 C299.33692641 513.10157649 274.00867081 513.09049201 248.68036714 513.06895681 C226.17604115 513.04996823 203.67180568 513.05167884 181.16748047 513.07080078 C155.88070845 513.09221518 130.59398663 513.10071553 105.30720681 513.08835173 C102.61221104 513.08706886 99.91721526 513.0858175 97.22221947 513.08457947 C96.22686096 513.084105 96.22686096 513.084105 95.21139419 513.08362095 C85.18837835 513.07907 75.16540028 513.08441883 65.1423893 513.09449768 C53.74874433 513.10570289 42.35520963 513.10270844 30.96157733 513.0813747 C25.14616952 513.07084541 19.33094572 513.06677465 13.51553917 513.07997131 C8.1954893 513.09186158 2.87579459 513.08538819 -2.4442229 513.06406111 C-4.37203893 513.05958084 -6.29988475 513.06189307 -8.22768172 513.07156426 C-10.84256474 513.08367946 -13.45622175 513.07130316 -16.07104015 513.05268097 C-16.8243956 513.06204563 -17.57775105 513.0714103 -18.35393545 513.08105874 C-23.47430874 513.00787571 -26.41023171 511.86487484 -30.29614258 508.54931641 C-33.66435619 504.46544462 -33.72363679 500.54914097 -33.68204594 495.45564175 C-33.68730505 494.64135994 -33.69256416 493.82707813 -33.69798264 492.98812112 C-33.71198561 490.24798655 -33.70456075 487.50832796 -33.69728088 484.76817322 C-33.70288372 482.7883773 -33.70978523 480.80858471 -33.71787685 478.8287974 C-33.73626942 473.3790666 -33.73582557 467.92947358 -33.73229373 462.4797188 C-33.73168266 456.60560822 -33.74822903 450.73154229 -33.76246643 444.85745239 C-33.7874103 433.34441336 -33.7956321 421.83142041 -33.79730356 410.31835663 C-33.79868198 400.9597805 -33.8048559 391.60121874 -33.81440544 382.24264717 C-33.81709808 379.5491203 -33.81976752 376.85559342 -33.82243007 374.16206652 C-33.82342479 373.15763397 -33.82342479 373.15763397 -33.8244396 372.13290985 C-33.84290557 353.29413084 -33.85474099 334.45535702 -33.85340977 315.61656857 C-33.85336303 314.90614548 -33.85331629 314.1957224 -33.85326814 313.46377134 C-33.85301882 309.86304082 -33.8527217 306.2623103 -33.85241402 302.66157978 C-33.85235418 301.94646187 -33.85229435 301.23134396 -33.8522327 300.4945558 C-33.85211139 299.0484113 -33.85198599 297.6022668 -33.85185653 296.15612229 C-33.85001902 273.6657909 -33.87252255 251.17559528 -33.91357422 228.68530273 C-33.95967793 203.41681303 -33.98547149 178.14841253 -33.98268455 152.8798781 C-33.98246066 150.18415074 -33.98231454 147.48842337 -33.9822216 144.792696 C-33.98218664 144.1289422 -33.98215168 143.46518839 -33.98211565 142.78132084 C-33.98202912 132.76899236 -33.99806154 122.75678424 -34.0222187 112.74448967 C-34.04953022 101.35162428 -34.05606276 89.95898131 -34.03569043 78.56609737 C-34.02589199 72.75393049 -34.02573378 66.94219036 -34.05175018 61.13006401 C-34.07533779 55.80570752 -34.07106029 50.48211632 -34.04489779 45.15777857 C-34.04029092 43.23511279 -34.0457488 41.31238999 -34.06247801 39.38979148 C-34.15724257 27.72313234 -33.69258005 17.81628193 -25.55480373 8.57098871 C-18.31122839 1.55557339 -9.73153549 -0.04751613 0 0 Z " fill="#5E54AC" transform="translate(33.296142578125,-0.54931640625)"/>
<path d="M0 0 C1.09394577 -0.01022186 2.18789154 -0.02044373 3.31498718 -0.03097534 C6.90968074 -0.05863822 10.50360171 -0.05686357 14.09838867 -0.05224609 C16.61268902 -0.06002763 19.12698676 -0.06869854 21.64128113 -0.07821655 C26.90414936 -0.09311354 32.16681995 -0.092858 37.4296875 -0.08203125 C43.48470865 -0.06996496 49.53879875 -0.09455417 55.59366113 -0.13717139 C61.45153245 -0.17686277 67.30904338 -0.18272598 73.16702843 -0.17570114 C75.6439908 -0.17672329 78.12096873 -0.18711815 80.59784889 -0.20732498 C106.65604293 -0.39382188 106.65604293 -0.39382188 116.58552551 8.17269897 C123.59600533 15.48981581 125.29882593 23.9513461 125.24975586 33.76049805 C125.26009354 34.84445862 125.27043121 35.92841919 125.28108215 37.04522705 C125.31039519 40.60012929 125.31200695 44.15445932 125.31323242 47.70947266 C125.32822175 50.18526793 125.34495047 52.66105323 125.36334229 55.13682556 C125.40694293 61.6321154 125.42699897 68.12727034 125.44207764 74.62268066 C125.46167482 81.25912054 125.50364192 87.89539307 125.54370117 94.53173828 C125.61892456 107.53754839 125.67002427 120.54333611 125.70385742 133.54931641 C136.46095899 115.13407824 136.46095899 115.13407824 147.14135742 96.67431641 C147.75060059 95.61752686 148.35984375 94.5607373 148.98754883 93.47192383 C152.21794541 87.86813247 155.44431415 82.26203615 158.66870117 76.65478516 C169.97735044 56.99817426 169.97735044 56.99817426 174.82885742 48.79931641 C175.47081055 47.71134766 176.11276367 46.62337891 176.77416992 45.50244141 C182.30348263 37.04057823 188.65530227 32.16717269 198.61401367 29.88134766 C209.77140757 28.547482 217.76730187 32.26336875 227.26635742 37.79931641 C228.90229858 38.73432983 228.90229858 38.73432983 230.57128906 39.68823242 C233.95675264 41.62852944 237.3315143 43.58631809 240.70385742 45.54931641 C241.72060547 46.13890137 242.73735352 46.72848633 243.78491211 47.3359375 C248.72339398 50.20090572 253.65401202 53.07894513 258.57885742 55.96728516 C263.9642893 59.12302965 269.36730275 62.24738323 274.77685547 65.36157227 C277.00104248 66.64256583 279.22388742 67.92589274 281.4453125 69.21166992 C286.2245306 71.97774536 291.00790662 74.72911258 295.84057617 77.40087891 C305.87744112 83.00277623 315.32121636 88.80956214 318.70385742 100.54931641 C321.79991588 115.96131327 315.04138258 127.32999945 307.26538086 139.97314453 C304.26258197 144.92710542 301.40063855 149.96327004 298.51635742 154.98681641 C297.22359866 157.230427 295.93062719 159.47391504 294.63745117 161.71728516 C291.41137209 167.3191279 288.187902 172.92246848 284.96582031 178.52661133 C283.71279427 180.6998309 282.45549914 182.87059487 281.19384766 185.03881836 C278.16130725 190.25158025 275.1850259 195.47976804 272.32885742 200.79150391 C271.78052246 201.78375977 271.2321875 202.77601563 270.66723633 203.79833984 C269.65360664 205.63365459 268.66361559 207.48236254 267.70532227 209.34716797 C263.39145877 217.03444594 257.3005234 220.40519829 249.70385742 224.54931641 C247.51889652 225.80997067 245.33529292 227.07298041 243.15307617 228.33837891 C240.90023089 229.61889313 238.64629063 230.89748251 236.39135742 232.17431641 C233.91776105 233.5802196 231.44540424 234.98829206 228.97338867 236.39697266 C228.35778076 236.74765305 227.74217285 237.09833344 227.10791016 237.4596405 C221.24221412 240.80493848 215.40687858 244.20133755 209.57885742 247.61181641 C193.46541075 257.03752442 177.29742385 266.36816208 161.07885742 275.61181641 C152.68458207 280.3969705 144.33346207 285.25344767 135.99194336 290.12988281 C125.35557432 296.34490586 114.68279924 302.4962155 104.00805664 308.64501953 C100.6777149 310.56438303 97.34876594 312.48613994 94.02026367 314.40869141 C91.81065286 315.68477568 89.60101766 316.96081773 87.39135742 318.23681641 C86.31917969 318.85596924 85.24700195 319.47512207 84.14233398 320.11303711 C78.99662307 323.08198826 73.84640013 326.04248828 68.68432617 328.98291016 C67.73662354 329.52278564 66.7889209 330.06266113 65.8125 330.61889648 C64.05934138 331.61642918 62.30534562 332.61249288 60.55029297 333.60668945 C59.76307861 334.05439697 58.97586426 334.50210449 58.16479492 334.96337891 C57.41552734 335.38651367 56.66625977 335.80964844 55.89428711 336.24560547 C54.40407649 337.13255651 52.94597407 338.07525693 51.52124023 339.06396484 C50.83126953 339.54124023 50.14129883 340.01851563 49.43041992 340.51025391 C48.83052246 340.94901855 48.230625 341.3877832 47.61254883 341.83984375 C45.70385742 342.54931641 45.70385742 342.54931641 43.30932617 341.86889648 C40.57817295 340.48566156 37.92836841 339.02819377 35.28979492 337.47509766 C34.28174805 336.89050781 33.27370117 336.30591797 32.23510742 335.70361328 C30.12000477 334.46936712 28.00804449 333.22972106 25.89916992 331.98486328 C24.89370117 331.40414063 23.88823242 330.82341797 22.85229492 330.22509766 C21.93625488 329.68796143 21.02021484 329.1508252 20.07641602 328.59741211 C17.63186479 327.19964223 17.63186479 327.19964223 14.70385742 328.54931641 C12.99140651 331.01414053 12.99140651 331.01414053 11.38354492 334.08056641 C10.76608398 335.20076172 10.14862305 336.32095703 9.51245117 337.47509766 C8.86755443 338.66630611 8.22302757 339.85771488 7.57885742 341.04931641 C6.30834878 343.37384861 5.03323971 345.69582371 3.75854492 348.01806641 C3.19635254 349.05382812 2.63416016 350.08958984 2.05493164 351.15673828 C0.70385742 353.54931641 0.70385742 353.54931641 -0.29614258 354.54931641 C-2.74444684 354.63775434 -5.16434857 354.66460392 -7.61254883 354.64697266 C-8.34360336 354.64555771 -9.0746579 354.64414276 -9.8278656 354.64268494 C-12.1714989 354.63707049 -14.51503797 354.62451562 -16.85864258 354.61181641 C-18.44392766 354.60680326 -20.02921423 354.60224004 -21.61450195 354.59814453 C-25.50841868 354.58709637 -29.40226463 354.56982212 -33.29614258 354.54931641 C-33.43353984 312.45879114 -33.5392331 270.3682918 -33.60253455 228.27758662 C-33.6100386 223.30598837 -33.61780456 218.33439056 -33.62573242 213.36279297 C-33.62730628 212.37305659 -33.62888015 211.38332021 -33.6305017 210.36359182 C-33.65659437 194.34757729 -33.70389345 178.33169226 -33.75905935 162.3157545 C-33.81521093 145.87628423 -33.84850425 129.43688169 -33.86067355 112.99731946 C-33.86889749 102.85692926 -33.89485171 92.71690513 -33.94364138 82.57662764 C-33.97540957 75.6186987 -33.98493131 68.66095841 -33.97715084 61.70296225 C-33.97331587 57.69119683 -33.979105 53.68007011 -34.01137543 49.66841888 C-34.04075733 45.9888128 -34.04193224 42.31026968 -34.02153595 38.63061276 C-34.01783419 36.68293201 -34.04354945 34.73526221 -34.07063043 32.78776622 C-33.97709623 23.54591069 -31.73618321 15.64940215 -25.55472487 8.54902399 C-18.25454717 1.58049543 -9.75880397 -0.04764928 0 0 Z " fill="#BC2E4A" transform="translate(33.296142578125,-0.54931640625)"/>
<path d="M0 0 C3.94486838 1.68635595 5.15395196 4.99416089 6.99609375 8.65625 C7.87071401 10.31147597 8.74848777 11.96503832 9.62890625 13.6171875 C10.33321777 14.9489502 10.33321777 14.9489502 11.05175781 16.30761719 C13.7001559 21.20449324 16.54461765 25.9857155 19.37109375 30.78125 C24.2737622 39.14963282 29.13716605 47.53896687 33.93359375 55.96875 C34.49925049 56.95576904 35.06490723 57.94278809 35.64770508 58.9597168 C36.41957153 60.32157104 36.41957153 60.32157104 37.20703125 61.7109375 C37.66255371 62.51128418 38.11807617 63.31163086 38.58740234 64.13623047 C39.55859375 66.09375 39.55859375 66.09375 39.55859375 68.09375 C38.53765625 68.65320313 37.51671875 69.21265625 36.46484375 69.7890625 C26.56057172 75.24128535 16.76147509 80.85631796 7.00537109 86.5690918 C-0.41979364 90.9168515 -7.86133498 95.23497407 -15.31640625 99.53125 C-16.38221924 100.14548828 -17.44803223 100.75972656 -18.54614258 101.39257812 C-20.72257662 102.64662258 -22.89909098 103.90052767 -25.07568359 105.15429688 C-28.59033875 107.17957038 -32.10396094 109.20662479 -35.6171875 111.234375 C-36.20733643 111.57497452 -36.79748535 111.91557404 -37.40551758 112.26649475 C-40.23833381 113.90144907 -43.07109625 115.53649655 -45.90380859 117.17163086 C-47.88610216 118.31547929 -49.86911785 119.45807766 -51.85302734 120.59912109 C-53.45936374 121.52668112 -55.06201084 122.46070074 -56.65869141 123.40478516 C-61.2321695 126.09375 -61.2321695 126.09375 -63.44140625 126.09375 C-62.466875 127.79144531 -62.466875 127.79144531 -61.47265625 129.5234375 C-60.62868224 131.00508076 -59.78494444 132.48685858 -58.94140625 133.96875 C-58.29751953 135.08830078 -58.29751953 135.08830078 -57.640625 136.23046875 C-57.23457031 136.94589844 -56.82851562 137.66132813 -56.41015625 138.3984375 C-56.03310547 139.05827637 -55.65605469 139.71811523 -55.26757812 140.39794922 C-54.44140625 142.09375 -54.44140625 142.09375 -54.44140625 144.09375 C-48.50140625 144.09375 -42.56140625 144.09375 -36.44140625 144.09375 C-36.44140625 169.83375 -36.44140625 195.57375 -36.44140625 222.09375 C-73.40140625 222.09375 -110.36140625 222.09375 -148.44140625 222.09375 C-148.44140625 248.49375 -148.44140625 274.89375 -148.44140625 302.09375 C-185.56497888 302.25496214 -185.56497888 302.25496214 -201.11328125 302.2890625 C-211.85196568 302.31280347 -222.59052464 302.3407235 -233.32910156 302.39550781 C-241.14972365 302.43538675 -248.97024402 302.46118546 -256.79096496 302.47010398 C-260.93171588 302.47531696 -265.07217579 302.48756161 -269.2128334 302.51667023 C-273.1116455 302.54385617 -277.0100472 302.55218868 -280.90894508 302.54618073 C-282.33839843 302.54727955 -283.76786574 302.55521486 -285.19723701 302.5705719 C-297.33379113 302.69455044 -297.33379113 302.69455044 -301.15133667 300.37786865 C-304.31254803 297.22487195 -306.24557682 294.65459214 -306.81054974 290.15152264 C-306.80778436 289.05735436 -306.80501898 287.96318609 -306.8021698 286.83586121 C-306.80629379 285.57527893 -306.81041779 284.31469666 -306.81466675 283.01591492 C-306.80405071 281.62673734 -306.7931463 280.23756195 -306.78198242 278.84838867 C-306.78113584 277.37968971 -306.7816119 275.91098948 -306.78330994 274.44229126 C-306.7841701 270.4611978 -306.76654108 266.48037593 -306.74558806 262.49934554 C-306.7268247 258.33667998 -306.72507109 254.17400809 -306.72151184 250.01130676 C-306.71219037 242.13136056 -306.68757522 234.25153933 -306.65746337 226.37164813 C-306.62392253 217.39953189 -306.60743415 208.42740966 -306.59237707 199.45524633 C-306.56102574 181.00134339 -306.50826326 162.54755674 -306.44140625 144.09375 C-305.48788773 144.12858994 -304.5343692 144.16342987 -303.55195618 144.19932556 C-299.97627689 144.31313626 -296.40372014 144.34332583 -292.82637024 144.34971619 C-291.28565777 144.36382677 -289.74497043 144.39990631 -288.20533752 144.45927429 C-278.65394786 144.89943016 -278.65394786 144.89943016 -270.5110321 140.48231506 C-265.90085611 134.59423878 -263.07792325 127.61690635 -260.65698242 120.59985352 C-259.44140625 118.09375 -259.44140625 118.09375 -257.62597656 116.58081055 C-254.40257097 115.86213664 -252.99728468 117.00333217 -250.1953125 118.671875 C-249.19306641 119.25582031 -248.19082031 119.83976562 -247.15820312 120.44140625 C-246.11728516 121.06917969 -245.07636719 121.69695312 -244.00390625 122.34375 C-241.94421675 123.55985008 -239.88306819 124.77348309 -237.8203125 125.984375 C-236.90838135 126.53125977 -235.9964502 127.07814453 -235.05688477 127.64160156 C-231.38136259 129.68534978 -231.38136259 129.68534978 -227.44140625 131.09375 C-225.21009161 130.44720324 -225.21009161 130.44720324 -223.125 129.0078125 C-222.29323242 128.49750488 -221.46146484 127.98719727 -220.60449219 127.46142578 C-219.70504883 126.88634277 -218.80560547 126.31125977 -217.87890625 125.71875 C-215.89471575 124.49758126 -213.90896293 123.27894836 -211.921875 122.0625 C-210.86919434 121.4128125 -209.81651367 120.763125 -208.73193359 120.09375 C-203.69832464 117.03429574 -198.5817457 114.12514313 -193.45773315 111.22036743 C-190.47812934 109.53074638 -187.50296567 107.83333929 -184.52734375 106.13671875 C-183.9358403 105.7996843 -183.34433685 105.46264984 -182.73490906 105.11540222 C-173.3563926 99.76908192 -164.01492715 94.35825417 -154.66796875 88.95703125 C-151.40616618 87.0733995 -148.14278781 85.19252679 -144.87890625 83.3125 C-134.42427593 77.28935214 -123.98098618 71.24841632 -113.56640625 65.15625 C-104.92858624 60.10536981 -96.25820985 55.11350647 -87.56640625 50.15625 C-74.16570605 42.51307692 -60.790455 34.82689309 -47.44140625 27.09375 C-46.36745605 26.47161621 -45.29350586 25.84948242 -44.18701172 25.20849609 C-25.85224561 14.78356831 -25.85224561 14.78356831 -8.06640625 3.46875 C-7.36515625 2.994375 -6.66390625 2.52 -5.94140625 2.03125 C-5.37421875 1.62777344 -4.80703125 1.22429687 -4.22265625 0.80859375 C-2.44140625 0.09375 -2.44140625 0.09375 0 0 Z " fill="#B7B4E7" transform="translate(306.44140625,209.90625)"/>
<path d="M0 0 C1.09394577 -0.01022186 2.18789154 -0.02044373 3.31498718 -0.03097534 C6.90968074 -0.05863822 10.50360171 -0.05686357 14.09838867 -0.05224609 C16.61268902 -0.06002763 19.12698676 -0.06869854 21.64128113 -0.07821655 C26.90414936 -0.09311354 32.16681995 -0.092858 37.4296875 -0.08203125 C43.48470865 -0.06996496 49.53879875 -0.09455417 55.59366113 -0.13717139 C61.45153245 -0.17686277 67.30904338 -0.18272598 73.16702843 -0.17570114 C75.6439908 -0.17672329 78.12096873 -0.18711815 80.59784889 -0.20732498 C106.65604293 -0.39382188 106.65604293 -0.39382188 116.58552551 8.17269897 C123.56799872 15.4605842 125.30766126 24.00602416 125.41186523 33.77514648 C125.45129242 35.40677483 125.45129242 35.40677483 125.49151611 37.07136536 C125.5700085 40.65387412 125.61702536 44.23571174 125.65698242 47.81884766 C125.67328453 49.05542303 125.68958664 50.29199841 125.70638275 51.56604576 C125.78112749 57.45320034 125.83938921 63.34014777 125.87283063 69.22766095 C125.90779124 75.27750208 125.98675041 81.3225172 126.13061523 87.37084961 C127.43263184 143.28602113 127.43263184 143.28602113 110.79838562 163.80981445 C106.99023671 168.790617 104.10915161 174.32496254 101.07885742 179.79931641 C99.84212907 181.95014957 98.60176962 184.09890303 97.35620117 186.24462891 C96.75018066 187.29166992 96.14416016 188.33871094 95.51977539 189.41748047 C89.11391527 200.46539303 82.67292001 211.4930395 76.20776367 222.50634766 C69.56791197 233.83173895 63.05983243 245.21939076 56.67041016 256.68798828 C53.057376 263.1630983 49.37652504 269.58840168 45.5925293 275.96484375 C41.82611776 282.31649347 38.13799881 288.71215834 34.45385742 295.11181641 C30.67406671 301.67320528 26.89207041 308.23320635 23.08666992 314.77978516 C22.50651123 315.78066162 21.92635254 316.78153809 21.32861328 317.81274414 C20.16600818 319.79713764 18.98716243 321.77210857 17.79199219 323.73706055 C14.25121549 329.60176294 11.3977607 335.35204541 9.0625 341.80029297 C4.27028798 351.11727727 4.27028798 351.11727727 -0.29614258 354.54931641 C-6.00224992 355.73182177 -11.48674812 355.45231977 -17.27661133 355.14306641 C-18.83129153 355.09535192 -20.38611265 355.05201667 -21.94104004 355.01318359 C-25.72958498 354.90909122 -29.51129873 354.74557772 -33.29614258 354.54931641 C-33.43353984 312.45879114 -33.5392331 270.3682918 -33.60253455 228.27758662 C-33.6100386 223.30598837 -33.61780456 218.33439056 -33.62573242 213.36279297 C-33.62730628 212.37305659 -33.62888015 211.38332021 -33.6305017 210.36359182 C-33.65659437 194.34757729 -33.70389345 178.33169226 -33.75905935 162.3157545 C-33.81521093 145.87628423 -33.84850425 129.43688169 -33.86067355 112.99731946 C-33.86889749 102.85692926 -33.89485171 92.71690513 -33.94364138 82.57662764 C-33.97540957 75.6186987 -33.98493131 68.66095841 -33.97715084 61.70296225 C-33.97331587 57.69119683 -33.979105 53.68007011 -34.01137543 49.66841888 C-34.04075733 45.9888128 -34.04193224 42.31026968 -34.02153595 38.63061276 C-34.01783419 36.68293201 -34.04354945 34.73526221 -34.07063043 32.78776622 C-33.97709623 23.54591069 -31.73618321 15.64940215 -25.55472487 8.54902399 C-18.25454717 1.58049543 -9.75880397 -0.04764928 0 0 Z " fill="#FF6325" transform="translate(33.296142578125,-0.54931640625)"/>
<path d="M0 0 C9.48622602 6.53872008 14.53438626 16.71807762 20 26.5625 C24.55257419 34.68946903 29.1679573 42.77399177 33.875 50.8125 C35.04040749 52.8059645 36.20577151 54.79945441 37.37109375 56.79296875 C37.96003418 57.80020996 38.54897461 58.80745117 39.15576172 59.84521484 C39.76436035 60.88629395 40.37295898 61.92737305 41 63 C41.64855957 64.10939941 42.29711914 65.21879883 42.96533203 66.36181641 C46.82128495 72.96786759 50.64519779 79.59047223 54.421875 86.2421875 C55.75611326 88.57380189 57.12069393 90.88248515 58.5 93.1875 C63.7416182 102.4871452 64.88415711 111.34287313 62.328125 121.73046875 C58.37646751 131.80026262 50.32960577 137.52813948 41.1875 142.5625 C39.03254431 143.78384045 36.87759667 145.0051951 34.72265625 146.2265625 C33.05807373 147.15903809 33.05807373 147.15903809 31.35986328 148.11035156 C25.91969489 151.17000156 20.52579479 154.30906568 15.125 157.4375 C12.94958641 158.692044 10.7738028 159.94594658 8.59765625 161.19921875 C1.91785679 165.0470295 -4.76009659 168.89803298 -11.4375 172.75 C-12.4176709 173.31517334 -13.3978418 173.88034668 -14.40771484 174.46264648 C-15.38562988 175.02669189 -16.36354492 175.5907373 -17.37109375 176.171875 C-18.35857605 176.72178101 -19.34605835 177.27168701 -20.36346436 177.83825684 C-22.96570415 179.32994438 -25.37268745 180.97147541 -27.79244995 182.74232483 C-41.92123961 192.60941513 -54.99214065 192.44901283 -71.76171875 192.07421875 C-74.49222015 192.0474539 -77.22271713 192.03747775 -79.95332336 192.02705383 C-86.35337333 191.99318554 -92.75129737 191.9033757 -99.15042096 191.79220945 C-106.44908953 191.66823379 -113.74787263 191.60852468 -121.04733598 191.55355966 C-136.03273145 191.43931337 -151.01615075 191.24648493 -166 191 C-167.50519387 188.37785672 -169.00431319 185.75255792 -170.5 183.125 C-170.92925781 182.37863281 -171.35851562 181.63226563 -171.80078125 180.86328125 C-172.40986328 179.79013672 -172.40986328 179.79013672 -173.03125 178.6953125 C-173.40830078 178.03547363 -173.78535156 177.37563477 -174.17382812 176.69580078 C-175 175 -175 175 -175 173 C-173.9790625 172.44054687 -172.958125 171.88109375 -171.90625 171.3046875 C-162.00197797 165.85246465 -152.20288134 160.23743204 -142.44677734 154.5246582 C-135.02161261 150.1768985 -127.58007127 145.85877593 -120.125 141.5625 C-119.05918701 140.94826172 -117.99337402 140.33402344 -116.89526367 139.70117188 C-114.71882963 138.44712742 -112.54231527 137.19322233 -110.36572266 135.93945312 C-106.8510675 133.91417962 -103.33744531 131.88712521 -99.82421875 129.859375 C-99.23406982 129.51877548 -98.6439209 129.17817596 -98.03588867 128.82725525 C-95.20307244 127.19230093 -92.37031 125.55725345 -89.53759766 123.92211914 C-87.55530409 122.77827071 -85.5722884 121.63567234 -83.58837891 120.49462891 C-81.98204251 119.56706888 -80.37939541 118.63304926 -78.78271484 117.68896484 C-74.20923675 115 -74.20923675 115 -72 115 C-77.83619329 104.16934301 -83.68466335 93.35740187 -89.98217773 82.78662109 C-92.64386999 78.31573964 -95.26214729 73.82170235 -97.8515625 69.30859375 C-98.18804306 68.72262421 -98.52452362 68.13665466 -98.87120056 67.53292847 C-100.55437409 64.60086139 -102.23465539 61.6672116 -103.91137695 58.73144531 C-104.527146 57.65862305 -105.14291504 56.58580078 -105.77734375 55.48046875 C-106.32640381 54.52035889 -106.87546387 53.56024902 -107.44116211 52.57104492 C-108.84305018 50.25886273 -110.33379089 48.12669555 -112 46 C-111.27748047 45.58862793 -110.55496094 45.17725586 -109.81054688 44.75341797 C-97.13519175 37.53294957 -84.46731837 30.30217572 -71.875 22.9375 C-63.82991839 18.23413806 -55.78168845 13.53642788 -47.71588135 8.86868286 C-46.05165351 7.90491303 -44.38884054 6.93870129 -42.72607422 5.97241211 C-28.73981467 -2.11301569 -15.5768834 -8.89355843 0 0 Z " fill="#4793FE" transform="translate(418,163)"/>
<path d="M0 0 C52.14 0 104.28 0 158 0 C158 52.14 158 104.28 158 158 C133.53875 158.0825 109.0775 158.165 83.875 158.25 C72.28866455 158.30462402 72.28866455 158.30462402 60.46826172 158.36035156 C51.03735352 158.37841797 51.03735352 158.37841797 46.62258911 158.3817749 C43.53856908 158.38550218 40.45482435 158.40049417 37.37088013 158.42230225 C33.43550692 158.44976205 29.50053338 158.45796053 25.56507325 158.4522891 C24.12178442 158.45347482 22.67848147 158.46139353 21.23527503 158.47686052 C9.10758636 158.60078299 9.10758636 158.60078299 5.29006958 156.28411865 C2.12885822 153.13112195 0.19582943 150.56084214 -0.36914349 146.05777264 C-0.36637811 144.96360436 -0.36361273 143.86943609 -0.36076355 142.74211121 C-0.36696229 140.85515549 -0.36696229 140.85515549 -0.37328625 138.93007946 C-0.3626471 137.53826382 -0.35173342 136.14645026 -0.34057617 134.75463867 C-0.33965679 133.26219614 -0.34005828 131.76975231 -0.34167194 130.27731037 C-0.3423485 126.28500481 -0.32497659 122.29296967 -0.30384064 118.30072784 C-0.28674028 114.55289367 -0.28595045 110.80512485 -0.28381348 107.05725098 C-0.26807915 96.10063158 -0.2261956 85.14406236 -0.1875 74.1875 C-0.125625 49.705625 -0.06375 25.22375 0 0 Z " fill="#E1DEF3" transform="translate(0,354)"/>
<path d="M0 0 C28.47719641 -0.1355395 56.95413089 -0.24602473 85.43156815 -0.31087303 C98.65469171 -0.34178605 111.87760034 -0.38391821 125.10058594 -0.45263672 C136.62828809 -0.51251636 148.15583456 -0.5511677 159.68368793 -0.56453097 C165.78536682 -0.57234009 171.88660039 -0.59064092 177.98813629 -0.63438034 C183.73705266 -0.67525615 189.48534236 -0.68763857 195.23439026 -0.67864609 C197.33860943 -0.68029002 199.44285063 -0.69213504 201.54694366 -0.71523285 C213.91060821 -0.84424155 224.0293266 -0.81739614 233.89821243 7.62355995 C250.98946341 25.64473756 242 58.43758664 242 78 C162.14 78 82.28 78 0 78 C0 52.26 0 26.52 0 0 Z " fill="#7873D5" transform="translate(270,354)"/>
<path d="M0 0 C3.97939214 0.46192092 6.83302624 1.83577074 10.26171875 3.8515625 C11.28579834 4.44839844 12.30987793 5.04523438 13.36499023 5.66015625 C15.00963257 6.63275391 15.00963257 6.63275391 16.6875 7.625 C17.83820141 8.29889756 18.98933185 8.97206301 20.14086914 9.64453125 C21.93431773 10.6922679 23.72730055 11.7407505 25.5186615 12.79205322 C29.70211925 15.24712733 33.90027226 17.6751229 38.109375 20.0859375 C39.25446533 20.74255371 40.39955566 21.39916992 41.5793457 22.07568359 C43.75428591 23.32198521 45.92986409 24.56717442 48.10620117 25.81103516 C54.85892247 29.69370107 61.46417773 33.76246232 68 38 C67.41933397 41.80560234 66.33578266 44.526577 64.3671875 47.82421875 C63.81619385 48.75669434 63.2652002 49.68916992 62.69750977 50.64990234 C62.09608154 51.65230957 61.49465332 52.6547168 60.875 53.6875 C59.58913841 55.86025981 58.30400648 58.03345157 57.01953125 60.20703125 C56.3538916 61.32932129 55.68825195 62.45161133 55.00244141 63.60791016 C51.81524836 69.00694212 48.68880011 74.44055478 45.5625 79.875 C44.3047514 82.05732849 43.04693852 84.23961995 41.7890625 86.421875 C40.52596731 88.6145405 39.26294656 90.80724889 38 93 C28.38350154 109.696342 18.72676952 126.367655 9 143 C9.87914062 143.26554688 10.75828125 143.53109375 11.6640625 143.8046875 C14.87919964 144.95671556 17.48249463 146.32695612 20.375 148.125 C21.24898437 148.66382813 22.12296875 149.20265625 23.0234375 149.7578125 C23.67570313 150.16773438 24.32796875 150.57765625 25 151 C23.69204145 154.92387566 22.2626032 155.2734936 18.69140625 157.265625 C17.00217041 158.21804077 17.00217041 158.21804077 15.27880859 159.18969727 C14.04005672 159.87649669 12.8012867 160.5632634 11.5625 161.25 C10.28668728 161.96632588 9.01146657 162.68370709 7.73681641 163.40209961 C5.1093667 164.88243388 2.47988874 166.35906736 -0.15087891 167.83349609 C-5.83744266 171.02694545 -11.48090724 174.29475326 -17.125 177.5625 C-19.26685051 178.79961174 -21.40877776 180.03659064 -23.55078125 181.2734375 C-25.70053319 182.51560361 -27.85027266 183.75779131 -30 185 C-34.43707462 187.56323728 -38.87460224 190.12568815 -43.3125 192.6875 C-44.385 193.30681396 -45.4575 193.92612793 -46.5625 194.56420898 C-51.70784416 197.53306942 -56.85777282 200.49335161 -62.01953125 203.43359375 C-62.96723389 203.97346924 -63.91493652 204.51334473 -64.89135742 205.06958008 C-66.64451604 206.06711277 -68.3985118 207.06317647 -70.15356445 208.05737305 C-70.94077881 208.50508057 -71.72799316 208.95278809 -72.5390625 209.4140625 C-73.28833008 209.83719727 -74.03759766 210.26033203 -74.80957031 210.69628906 C-76.29978093 211.5832401 -77.75788335 212.52594053 -79.18261719 213.51464844 C-79.87258789 213.99192383 -80.56255859 214.46919922 -81.2734375 214.9609375 C-81.87333496 215.39970215 -82.47323242 215.8384668 -83.09130859 216.29052734 C-85 217 -85 217 -87.3605957 216.33105469 C-90.26765518 214.86502118 -93.12100621 213.34199649 -95.95703125 211.7421875 C-97.06884766 211.11699219 -98.18066406 210.49179687 -99.32617188 209.84765625 C-100.48831901 209.1901709 -101.65042791 208.53261797 -102.8125 207.875 C-103.99398189 207.20935359 -105.175621 206.54398616 -106.35742188 205.87890625 C-109.23983905 204.25534066 -112.12062331 202.62894985 -115 201 C-106.53080373 185.40390968 -97.94958 169.85937138 -88.89501953 154.59423828 C-80.41176668 140.28451915 -72.17446545 125.82749605 -63.9375 111.375 C-59.15235174 102.98072129 -54.29586871 94.62960461 -49.41943359 86.28808594 C-43.21202227 75.66474357 -37.06776301 65.00529383 -30.92626953 54.34375 C-28.26965984 49.73222575 -25.61170443 45.1214786 -22.95288086 40.51123047 C-21.69687102 38.33335118 -20.44115061 36.15530494 -19.18579102 33.97705078 C-16.23469898 28.85951679 -13.26726643 23.75282098 -10.2734375 18.66015625 C-7.90312114 14.60186726 -5.66962403 10.54295138 -3.625 6.3125 C-1.09319899 1.09319899 -1.09319899 1.09319899 0 0 Z " fill="#DB455A" transform="translate(164,125)"/>
<path d="M0 0 C25.74 0 51.48 0 78 0 C78.56424248 37.90276463 78.56424248 37.90276463 78.68359375 53.92578125 C78.7663022 64.9402309 78.86290953 75.95316905 79.05615234 86.96630859 C79.19689781 94.99147478 79.2862928 103.01540176 79.31723893 111.04176807 C79.33529555 115.28177935 79.37686062 119.51824983 79.48022079 123.7571106 C79.97422657 144.82910458 78.58432006 159.19649117 65.62680721 176.75252438 C63.43774509 179.77676949 61.64836398 182.92140297 59.84375 186.1875 C59.28324951 187.16130615 58.72274902 188.1351123 58.14526367 189.13842773 C57.60232666 190.08274658 57.05938965 191.02706543 56.5 192 C51.41642437 200.82453648 46.31464977 209.63820242 41.1875 218.4375 C40.59453125 219.45650391 40.0015625 220.47550781 39.390625 221.52539062 C38.56884766 222.93401367 38.56884766 222.93401367 37.73046875 224.37109375 C37.24989014 225.19536865 36.76931152 226.01964355 36.27416992 226.86889648 C35.23300282 228.61029285 34.12543875 230.31184188 33 232 C22.11 232 11.22 232 0 232 C0 155.44 0 78.88 0 0 Z " fill="#FFD321" transform="translate(0,122)"/>
<path d="M0 0 C52.14 0 104.28 0 158 0 C158 25.74 158 51.48 158 78 C136.88 78 115.76 78 94 78 C92.68 74.7 91.36 71.4 90 68 C85.54340002 64.32985884 81.89720912 63.3290774 76.14453125 63.61328125 C71.59230835 64.4341739 68.8773437 66.82012399 66.1875 70.4375 C64.73499136 73.30949321 64.73499136 73.30949321 64 78 C42.88 78 21.76 78 0 78 C0 52.26 0 26.52 0 0 Z " fill="#F3F3F5" transform="translate(0,354)"/>
<path d="M0 0 C3.9184727 1.72147956 5.14065017 5.02221682 6.98046875 8.6796875 C7.85508901 10.33491347 8.73286277 11.98847582 9.61328125 13.640625 C10.31759277 14.9723877 10.31759277 14.9723877 11.03613281 16.33105469 C13.6845309 21.22793074 16.52899265 26.009153 19.35546875 30.8046875 C24.2581372 39.17307032 29.12154105 47.56240437 33.91796875 55.9921875 C34.48362549 56.97920654 35.04928223 57.96622559 35.63208008 58.9831543 C36.14665771 59.89105713 36.66123535 60.79895996 37.19140625 61.734375 C37.64692871 62.53472168 38.10245117 63.33506836 38.57177734 64.15966797 C39.54296875 66.1171875 39.54296875 66.1171875 39.54296875 68.1171875 C38.52203125 68.67664063 37.50109375 69.23609375 36.44921875 69.8125 C26.54494672 75.26472285 16.74585009 80.87975546 6.98974609 86.5925293 C-0.43541864 90.940289 -7.87695998 95.25841157 -15.33203125 99.5546875 C-16.39784424 100.16892578 -17.46365723 100.78316406 -18.56176758 101.41601562 C-20.73820162 102.67006008 -22.91471598 103.92396517 -25.09130859 105.17773438 C-28.60596375 107.20300788 -32.11958594 109.23006229 -35.6328125 111.2578125 C-36.22296143 111.59841202 -36.81311035 111.93901154 -37.42114258 112.28993225 C-40.25395881 113.92488657 -43.08672125 115.55993405 -45.91943359 117.19506836 C-47.90172716 118.33891679 -49.88474285 119.48151516 -51.86865234 120.62255859 C-53.47498874 121.55011862 -55.07763584 122.48413824 -56.67431641 123.42822266 C-61.2477945 126.1171875 -61.2477945 126.1171875 -63.45703125 126.1171875 C-62.4825 127.81488281 -62.4825 127.81488281 -61.48828125 129.546875 C-60.64430724 131.02851826 -59.80056944 132.51029608 -58.95703125 133.9921875 C-58.52777344 134.73855469 -58.09851563 135.48492187 -57.65625 136.25390625 C-57.04716797 137.32705078 -57.04716797 137.32705078 -56.42578125 138.421875 C-56.04873047 139.08171387 -55.67167969 139.74155273 -55.28320312 140.42138672 C-54.45703125 142.1171875 -54.45703125 142.1171875 -54.45703125 144.1171875 C-66.99703125 144.1171875 -79.53703125 144.1171875 -92.45703125 144.1171875 C-89.03817214 141.38210021 -86.16250532 139.23137117 -82.4453125 137.1015625 C-81.52298828 136.57304687 -80.60066406 136.04453125 -79.65039062 135.5 C-78.69970703 134.96117187 -77.74902344 134.42234375 -76.76953125 133.8671875 C-75.32610352 133.03574219 -75.32610352 133.03574219 -73.85351562 132.1875 C-72.93505859 131.66414062 -72.01660156 131.14078125 -71.0703125 130.6015625 C-70.23282471 130.12428711 -69.39533691 129.64701172 -68.5324707 129.15527344 C-66.45703125 128.1171875 -66.45703125 128.1171875 -64.45703125 128.1171875 C-68.39744064 120.85380432 -72.39024276 113.62306217 -76.45703125 106.4296875 C-77.00883057 105.45290039 -77.56062988 104.47611328 -78.12915039 103.46972656 C-82.88005373 95.08507287 -87.72291318 86.75560063 -92.61132812 78.45043945 C-96.35553517 72.07324148 -99.95332182 65.62961154 -103.45703125 59.1171875 C-102.82539063 58.76640137 -102.19375 58.41561523 -101.54296875 58.05419922 C-87.80173337 50.41385455 -74.14600587 42.65062894 -60.58203125 34.69921875 C-54.07998204 30.88916109 -47.55070011 27.12704048 -41.01953125 23.3671875 C-29.9434799 16.98430558 -29.9434799 16.98430558 -18.89453125 10.5546875 C-18.21559814 10.15886475 -17.53666504 9.76304199 -16.8371582 9.35522461 C-12.48653951 6.79458103 -8.32738799 4.05500227 -4.31640625 0.98046875 C-2.45703125 0.1171875 -2.45703125 0.1171875 0 0 Z " fill="#8AB8FE" transform="translate(306.45703125,209.8828125)"/>
<path d="M0 0 C4.1010795 0.59245054 7.01417155 1.93894882 10.578125 4.02734375 C11.64885254 4.6497998 12.71958008 5.27225586 13.82275391 5.91357422 C14.95374512 6.58146973 16.08473633 7.24936523 17.25 7.9375 C18.42211566 8.62558475 19.59448065 9.31324494 20.76708984 10.00048828 C22.52614855 11.0318023 24.28473623 12.06385673 26.04147339 13.09912109 C29.40691085 15.07988076 32.79273334 17.0142639 36.2109375 18.90234375 C46.22936317 24.47599002 55.62793252 30.29694228 59 42 C62.09605846 57.41199687 55.33752516 68.78068305 47.56152344 81.42382812 C44.5587222 86.37779289 41.69691309 91.41402526 38.8125 96.4375 C37.52879179 98.66414666 36.24493545 100.89070791 34.9609375 103.1171875 C32.61382217 107.19228342 30.27118537 111.26986514 27.93458557 115.35099792 C26.92247809 117.11811904 25.90907738 118.88449206 24.89526367 120.65063477 C23.62718494 122.86056123 22.36156306 125.07190003 21.09887695 127.28491211 C17.61548093 133.35003398 13.97199318 139.24210721 10 145 C7.03529672 143.85138815 4.19766038 142.65282613 1.41796875 141.109375 C0.74612549 140.73707764 0.07428223 140.36478027 -0.61791992 139.98120117 C-1.34213135 139.57490479 -2.06634277 139.1686084 -2.8125 138.75 C-3.59020752 138.31598877 -4.36791504 137.88197754 -5.16918945 137.43481445 C-12.73693328 133.18920575 -20.22280781 128.80504442 -27.70825195 124.41650391 C-38.4031515 118.15536579 -49.19306847 112.06517687 -60 106 C-58.575794 102.19037936 -56.82091117 98.75596032 -54.796875 95.23046875 C-53.83189087 93.5451001 -53.83189087 93.5451001 -52.84741211 91.82568359 C-52.14840128 90.61288279 -51.44926061 89.40015681 -50.75 88.1875 C-50.0252852 86.92540022 -49.30075976 85.66319169 -48.57641602 84.40087891 C-43.49838065 75.56093785 -38.37280865 66.74883872 -33.22607422 57.94873047 C-24.1039836 42.35039519 -15.09630116 26.68547416 -6.125 11 C-5.61888184 10.11546143 -5.11276367 9.23092285 -4.59130859 8.31958008 C-3.90029053 7.10951294 -3.90029053 7.10951294 -3.1953125 5.875 C-2.79328613 5.17117187 -2.39125977 4.46734375 -1.97705078 3.7421875 C-1.28697254 2.51170316 -0.63091991 1.26183982 0 0 Z " fill="#A32649" transform="translate(293,58)"/>
<path d="M0 0 C3.8339058 1.2779686 4.10636815 2.47450668 6.00390625 5.96875 C6.57520264 7.00725098 7.14649902 8.04575195 7.73510742 9.11572266 C8.63966675 10.79093994 8.63966675 10.79093994 9.5625 12.5 C10.8187193 14.78993722 12.0765395 17.07899693 13.3359375 19.3671875 C13.9556543 20.49608398 14.57537109 21.62498047 15.21386719 22.78808594 C17.99713985 27.79310714 20.91938999 32.71222798 23.89086914 37.60742188 C27.84760695 44.20571957 30.55765415 50.01862172 30.4375 57.875 C30.42920166 58.57753906 30.42090332 59.28007812 30.41235352 60.00390625 C30.0932199 69.83458446 25.9829321 76.31748618 19 83 C15.54551516 85.46984945 11.90463396 87.51555448 8.1875 89.5625 C6.03254431 90.78384045 3.87759667 92.0051951 1.72265625 93.2265625 C0.61293457 93.84821289 -0.49678711 94.46986328 -1.64013672 95.11035156 C-7.08030455 98.17000125 -12.47422502 101.30903227 -17.875 104.4375 C-20.03217902 105.68163666 -22.1897343 106.92512113 -24.34765625 108.16796875 C-25.42934082 108.79106934 -26.51102539 109.41416992 -27.62548828 110.05615234 C-28.73907715 110.69762207 -29.85266602 111.3390918 -31 112 C-35.1963131 114.41783662 -39.39220284 116.83640662 -43.58770752 119.25564575 C-45.27098222 120.22606473 -46.95457887 121.19592519 -48.63818359 122.16577148 C-50.17273193 123.05051147 -50.17273193 123.05051147 -51.73828125 123.953125 C-52.63587158 124.47036133 -53.53346191 124.98759766 -54.45825195 125.52050781 C-56.20853523 126.53930684 -57.93557627 127.59875498 -59.64135742 128.69042969 C-62 130 -62 130 -65 130 C-66.52394692 127.35849201 -68.04788358 124.71697811 -69.57177734 122.07543945 C-70.9143823 119.74835632 -72.25713074 117.42135663 -73.60009766 115.09448242 C-77.07731577 109.06922902 -80.55180265 103.04243967 -84.01953125 97.01171875 C-85.30458522 94.77858697 -86.58973941 92.54551287 -87.875 90.3125 C-88.49713379 89.2304126 -89.11926758 88.1483252 -89.76025391 87.03344727 C-93.59310641 80.38400566 -97.47536305 73.76892089 -101.56396484 67.27270508 C-103.22341839 64.58230482 -104 63.23531071 -104 60 C-103.36835938 59.64921387 -102.73671875 59.29842773 -102.0859375 58.93701172 C-88.33297865 51.29014861 -74.66630949 43.51909961 -61.08984375 35.5625 C-54.78429504 31.86786645 -48.45700396 28.21156403 -42.125 24.5625 C-41.06152344 23.94938965 -39.99804688 23.3362793 -38.90234375 22.70458984 C-33.77793486 19.751109 -28.65230659 16.79975061 -23.52600098 13.8495636 C-21.11782525 12.46340262 -18.71009301 11.07647251 -16.3024292 9.68942261 C-14.59741766 8.70760702 -12.8917333 7.72696016 -11.18603516 6.74633789 C-10.15655762 6.15328857 -9.12708008 5.56023926 -8.06640625 4.94921875 C-7.15834229 4.42674561 -6.25027832 3.90427246 -5.31469727 3.3659668 C-3.50873799 2.30022034 -1.74478871 1.16319248 0 0 Z " fill="#005EDF" transform="translate(451,216)"/>
<path d="M0 0 C40.26 0 80.52 0 122 0 C122 63.66037736 122 63.66037736 112.6875 73.5 C105.50745747 78.84313522 98.63694887 80.59490486 89.79858398 80.45410156 C88.82191269 80.45468567 87.84524139 80.45526978 86.838974 80.45587158 C83.64097374 80.4531058 80.44392928 80.42208491 77.24609375 80.390625 C75.01693735 80.38315726 72.78777434 80.37746685 70.55860901 80.37347412 C64.71415834 80.35825986 58.87011033 80.31901413 53.02581787 80.2746582 C46.0014859 80.2263884 38.97701869 80.20815148 31.95256805 80.18484497 C21.30143268 80.14616086 10.65117941 80.0694768 0 80 C0 53.6 0 27.2 0 0 Z " fill="#38336B" transform="translate(390,432)"/>
<path d="M0 0 C24.47528676 -0.24065286 24.47528676 -0.24065286 34.9609375 -0.29296875 C42.09760524 -0.32874519 49.23380822 -0.37092888 56.37011719 -0.45263672 C62.12788718 -0.51814336 67.88515833 -0.55377234 73.6432724 -0.56926346 C75.83281042 -0.58029369 78.02232315 -0.60183274 80.21164703 -0.63438034 C103.87543801 -0.97197738 103.87543801 -0.97197738 113.89239502 7.62393188 C131.00049139 25.59363613 122 58.5933793 122 78 C81.74 78 41.48 78 0 78 C0 52.26 0 26.52 0 0 Z " fill="#5D54AB" transform="translate(390,354)"/>
<path d="M0 0 C0 40.26 0 80.52 0 122 C-25.74 122 -51.48 122 -78 122 C-78.24065286 97.52471324 -78.24065286 97.52471324 -78.29296875 87.0390625 C-78.32874519 79.90239476 -78.37092888 72.76619178 -78.45263672 65.62988281 C-78.51814336 59.87211282 -78.55377234 54.11484167 -78.56926346 48.3567276 C-78.58029369 46.16718958 -78.60183274 43.97767685 -78.63438034 41.78835297 C-78.97197738 18.12456199 -78.97197738 18.12456199 -70.37606812 8.10760498 C-52.40636387 -9.00049139 -19.4066207 0 0 0 Z " fill="#FF8D00" transform="translate(78,0)"/>
<path d="M0 0 C36.96 0 73.92 0 112 0 C112 26.4 112 52.8 112 80 C75.04 80 38.08 80 0 80 C0 53.6 0 27.2 0 0 Z " fill="#7873D5" transform="translate(158,432)"/>
<path d="M0 0 C2.76973579 1.31079033 3.46642078 2.9570775 4.90527344 5.64282227 C5.72572144 7.14546631 5.72572144 7.14546631 6.56274414 8.6784668 C7.43225708 10.31404541 7.43225708 10.31404541 8.31933594 11.98266602 C9.56868274 14.27409775 10.82003846 16.56443514 12.07324219 18.85375977 C12.39244125 19.4402832 12.71164032 20.02680664 13.04051208 20.63110352 C16.33188201 26.6690499 19.77926981 32.61273529 23.25683594 38.54516602 C24.12598633 40.0335498 24.12598633 40.0335498 25.01269531 41.55200195 C27.58168448 45.93983545 30.17070511 50.31273788 32.82324219 54.65063477 C33.25016357 55.35043457 33.67708496 56.05023438 34.11694336 56.77124023 C34.89063337 58.03333679 35.67028634 59.29180734 36.45727539 60.5456543 C38.12706299 63.26233699 38.94433594 64.66010522 38.94433594 67.92016602 C38.45143066 68.1916748 37.95852539 68.46318359 37.45068359 68.74291992 C35.155844 70.00842889 32.8625913 71.27678864 30.56933594 72.54516602 C29.40724609 73.18518555 29.40724609 73.18518555 28.22167969 73.83813477 C27.05185547 74.48588867 27.05185547 74.48588867 25.85839844 75.14672852 C25.08541349 75.56676336 24.31242855 75.98679821 23.51601982 76.41956139 C20.96881227 77.83501456 20.96881227 77.83501456 18.90098763 79.47956276 C10.91050135 85.3077118 2.62278524 84.72716327 -6.80615234 84.60131836 C-8.59085533 84.59962359 -10.37556249 84.60058045 -12.16026306 84.60397339 C-16.98013648 84.60568754 -21.79910513 84.57053213 -26.61876917 84.52852964 C-31.66489674 84.49089835 -36.71104746 84.48748753 -41.7572937 84.4803772 C-51.30176285 84.46176471 -60.84581725 84.41257647 -70.39010417 84.35228026 C-81.26068721 84.28510301 -92.13129056 84.25219794 -103.00202966 84.22210765 C-125.35347062 84.15947418 -147.70454405 84.05400925 -170.05566406 83.92016602 C-169.1079085 82.01160119 -168.15863923 80.103788 -167.20874023 78.19628906 C-166.68028 77.1337944 -166.15181976 76.07129974 -165.60734558 74.97660828 C-163.66087014 71.14251621 -161.57627251 67.42063551 -159.36816406 63.73266602 C-158.99111328 63.07975586 -158.6140625 62.4268457 -158.22558594 61.75415039 C-155.41465351 57.03982916 -155.41465351 57.03982916 -152.05566406 55.92016602 C-149.68310547 56.96826172 -149.68310547 56.96826172 -146.90722656 58.59594727 C-145.90175781 59.17666992 -144.89628906 59.75739258 -143.86035156 60.35571289 C-142.81105469 60.97510742 -141.76175781 61.59450195 -140.68066406 62.23266602 C-138.61195266 63.43984105 -136.54169215 64.6443662 -134.46972656 65.84594727 C-133.55143066 66.38646729 -132.63313477 66.9269873 -131.68701172 67.48388672 C-127.99777764 69.50845391 -127.99777764 69.50845391 -124.05566406 70.92016602 C-121.82434942 70.27361925 -121.82434942 70.27361925 -119.73925781 68.83422852 C-118.90749023 68.3239209 -118.07572266 67.81361328 -117.21875 67.2878418 C-116.31930664 66.71275879 -115.41986328 66.13767578 -114.49316406 65.54516602 C-112.50897356 64.32399727 -110.52322074 63.10536438 -108.53613281 61.88891602 C-106.95711182 60.91438477 -106.95711182 60.91438477 -105.34619141 59.92016602 C-100.31258245 56.86071175 -95.19600352 53.95155914 -90.07199097 51.04678345 C-87.09238715 49.3571624 -84.11722348 47.6597553 -81.14160156 45.96313477 C-80.55009811 45.62610031 -79.95859467 45.28906586 -79.34916687 44.94181824 C-69.97632235 39.59873129 -60.64091647 34.19052339 -51.29980469 28.79223633 C-47.9864203 26.88020807 -44.66989811 24.97372643 -41.35253906 23.06860352 C-39.12857401 21.78996937 -36.90461561 20.51132365 -34.68066406 19.23266602 C-33.07239746 18.31022095 -33.07239746 18.31022095 -31.43164062 17.36914062 C-26.28336433 14.40513684 -21.17141384 11.39929301 -16.11816406 8.27563477 C-15.19696777 7.70868896 -14.27577148 7.14174316 -13.32666016 6.55761719 C-11.60909431 5.49471683 -9.89801765 4.42123085 -8.19482422 3.33544922 C-7.43991699 2.86840576 -6.68500977 2.4013623 -5.90722656 1.92016602 C-5.2557666 1.50766602 -4.60430664 1.09516602 -3.93310547 0.67016602 C-2.05566406 -0.07983398 -2.05566406 -0.07983398 0 0 Z " fill="#B1D4F0" transform="translate(203.0556640625,270.079833984375)"/>
<path d="M0 0 C0.72058594 0.41507813 1.44117188 0.83015625 2.18359375 1.2578125 C9.11875071 5.23741037 16.07981952 9.16674553 23.06274414 13.06201172 C31.91243053 17.9991142 40.73070937 22.96828387 49.43725586 28.15380859 C57.11211359 32.70180332 64.91592447 37.02128628 72.71289062 41.35546875 C74.25879883 42.21591797 74.25879883 42.21591797 75.8359375 43.09375 C76.75938965 43.60615234 77.6828418 44.11855469 78.63427734 44.64648438 C80.46498372 45.69389781 82.24507185 46.8300479 84 48 C82.69204145 51.92387566 81.2626032 52.2734936 77.69140625 54.265625 C76.56524902 54.90056885 75.4390918 55.5355127 74.27880859 56.18969727 C73.04005672 56.87649669 71.8012867 57.5632634 70.5625 58.25 C69.28668728 58.96632588 68.01146657 59.68370709 66.73681641 60.40209961 C64.1093667 61.88243388 61.47988874 63.35906736 58.84912109 64.83349609 C53.16255734 68.02694545 47.51909276 71.29475326 41.875 74.5625 C39.73314949 75.79961174 37.59122224 77.03659064 35.44921875 78.2734375 C33.29946681 79.51560361 31.14972734 80.75779131 29 82 C24.56292538 84.56323728 20.12539776 87.12568815 15.6875 89.6875 C14.615 90.30681396 13.5425 90.92612793 12.4375 91.56420898 C7.29215584 94.53306942 2.14222718 97.49335161 -3.01953125 100.43359375 C-3.96723389 100.97346924 -4.91493652 101.51334473 -5.89135742 102.06958008 C-7.64451604 103.06711277 -9.3985118 104.06317647 -11.15356445 105.05737305 C-11.94077881 105.50508057 -12.72799316 105.95278809 -13.5390625 106.4140625 C-14.28833008 106.83719727 -15.03759766 107.26033203 -15.80957031 107.69628906 C-17.29978093 108.5832401 -18.75788335 109.52594053 -20.18261719 110.51464844 C-20.87258789 110.99192383 -21.56255859 111.46919922 -22.2734375 111.9609375 C-23.17328369 112.61908447 -23.17328369 112.61908447 -24.09130859 113.29052734 C-26 114 -26 114 -28.3605957 113.33105469 C-31.26765518 111.86502118 -34.12100621 110.34199649 -36.95703125 108.7421875 C-38.06884766 108.11699219 -39.18066406 107.49179687 -40.32617188 106.84765625 C-41.48831901 106.1901709 -42.65042791 105.53261797 -43.8125 104.875 C-44.99398189 104.20935359 -46.175621 103.54398616 -47.35742188 102.87890625 C-50.23983905 101.25534066 -53.12062331 99.62894985 -56 98 C-47.53165104 82.40547001 -38.95324475 66.86087645 -29.8972168 51.59863281 C-26.06604673 45.1378342 -22.3118967 38.6335369 -18.5625 32.125 C-17.92505859 31.01858154 -17.28761719 29.91216309 -16.63085938 28.7722168 C-15.36452962 26.57408694 -14.09825286 24.37592654 -12.83203125 22.17773438 C-10.08144318 17.40672501 -7.32282712 12.64037962 -4.5625 7.875 C-4.09593994 7.06949707 -3.62937988 6.26399414 -3.14868164 5.43408203 C-2.09929353 3.62262145 -1.04967711 1.81129313 0 0 Z " fill="#E17A4E" transform="translate(105,228)"/>
<path d="M0 0 C25.74 0 51.48 0 78 0 C78 39.43990615 78 39.43990615 66.02294922 56.08251953 C62.49033824 61.17722159 59.537458 66.60105009 56.5 72 C55.2592433 74.15912486 54.01575515 76.31668238 52.76953125 78.47265625 C52.15287598 79.5414502 51.5362207 80.61024414 50.90087891 81.71142578 C47.67437716 87.29336498 44.43340463 92.86682585 41.1875 98.4375 C40.59453125 99.45650391 40.0015625 100.47550781 39.390625 101.52539062 C38.84277344 102.46447266 38.29492188 103.40355469 37.73046875 104.37109375 C37.24989014 105.19536865 36.76931152 106.01964355 36.27416992 106.86889648 C35.23300282 108.61029285 34.12543875 110.31184188 33 112 C22.11 112 11.22 112 0 112 C0 75.04 0 38.08 0 0 Z " fill="#FEF06B" transform="translate(0,242)"/>
<path d="M0 0 C26.4 0 52.8 0 80 0 C80 13.92469668 79.77137276 18.70634835 72.9375 29.375 C72.20358551 30.57821 71.47335145 31.7836717 70.74658203 32.99121094 C69.25284786 35.46523881 67.74290337 37.9280896 66.21923828 40.38378906 C62.79722823 45.92400981 59.6013437 51.59450969 56.375 57.25 C48.1470472 71.52183645 39.84370313 85.75029777 31.50390625 99.95703125 C24.8038461 111.38528365 18.21834177 122.86754366 11.79296875 134.45288086 C3.97887513 148.51568508 3.97887513 148.51568508 1 153 C0.67 153 0.34 153 0 153 C0 102.51 0 52.02 0 0 Z " fill="#FE8D00" transform="translate(78,122)"/>
<path d="M0 0 C4.1524358 1.25130473 7.5691232 2.78181213 11.22265625 5.109375 C12.17333984 5.69847656 13.12402344 6.28757812 14.10351562 6.89453125 C16.0860308 8.13769258 18.06257857 9.39041849 20.03320312 10.65234375 C20.98259766 11.23628906 21.93199219 11.82023437 22.91015625 12.421875 C23.76746338 12.96424805 24.62477051 13.50662109 25.50805664 14.06542969 C27.97292373 15.26215596 27.97292373 15.26215596 30.49560547 14.35327148 C33.10203947 12.94486208 35.64330598 11.48940274 38.16015625 9.92578125 C39.11857422 9.34119141 40.07699219 8.75660156 41.06445312 8.15429688 C43.07122504 6.92147217 45.07381825 5.68182067 47.07226562 4.43554688 C48.02939453 3.85482422 48.98652344 3.27410156 49.97265625 2.67578125 C50.84156494 2.13864502 51.71047363 1.60150879 52.60571289 1.0480957 C55 0 55 0 57.10058594 -0.01074219 C59.98393017 1.52358238 60.87203583 3.65033883 62.41796875 6.49609375 C63.03220703 7.61177734 63.64644531 8.72746094 64.27929688 9.87695312 C64.91562465 11.06366267 65.55168939 12.25051329 66.1875 13.4375 C66.83408555 14.62109954 67.48185909 15.80405093 68.13085938 16.98632812 C72.39300272 24.78600543 72.39300272 24.78600543 74 28 C44.3 28 14.6 28 -16 28 C-9.07209302 14.14418605 -9.07209302 14.14418605 -5.1875 7.8125 C-4.79369141 7.15958984 -4.39988281 6.50667969 -3.99414062 5.83398438 C-1.15649802 1.15649802 -1.15649802 1.15649802 0 0 Z " fill="#E1DEF3" transform="translate(49,326)"/>
<path d="M0 0 C4.49593768 2.56674158 7.15387135 5.01072861 8.74609375 10.0859375 C9.33620915 15.39697607 9.0155055 19.02700615 6.0703125 23.54296875 C3.23829592 26.84281107 0.02730368 28.65035214 -4.23828125 29.46484375 C-9.36661375 29.77294124 -13.34813231 28.42809343 -17.25390625 25.0859375 C-20.85179878 20.98922212 -21.96496969 16.69515817 -21.70703125 11.296875 C-20.7055217 6.4101991 -17.68177687 3.31549276 -14.00390625 0.1484375 C-9.23696042 -1.69333702 -4.78904148 -1.94217627 0 0 Z " fill="#07323F" transform="translate(85.25390625,417.9140625)"/>
<path d="M0 0 C6.37957167 1.95142592 11.66951073 5.10615412 17.375 8.5 C18.39722656 9.09425781 19.41945312 9.68851562 20.47265625 10.30078125 C21.92091797 11.15736328 21.92091797 11.15736328 23.3984375 12.03125 C24.72367432 12.81338867 24.72367432 12.81338867 26.07568359 13.61132812 C27.02822021 14.2987207 27.02822021 14.2987207 28 15 C28 15.66 28 16.32 28 17 C17.41636606 26.71492834 5.8520078 29.08739765 -8.07202148 28.55908203 C-10.72009565 28.41312682 -13.35819796 28.23133968 -16 28 C-4.92493947 4.92493947 -4.92493947 4.92493947 0 0 Z " fill="#BEBBDB" transform="translate(49,326)"/>
<path d="M0 0 C4.50564539 2.57228374 7.02944327 5.04327671 8.74609375 10.0859375 C8.74609375 11.4059375 8.74609375 12.7259375 8.74609375 14.0859375 C-1.15390625 14.0859375 -11.05390625 14.0859375 -21.25390625 14.0859375 C-20.21308662 6.80020012 -19.45158194 4.73544022 -14.06640625 0.2734375 C-9.30866044 -1.73538851 -4.83339859 -1.96016511 0 0 Z " fill="#0F647F" transform="translate(85.25390625,417.9140625)"/>
<path d="M0 0 C4.4179711 0.76307433 7.45952999 2.23378186 11.3125 4.5625 C12.38113281 5.20316406 13.44976562 5.84382813 14.55078125 6.50390625 C15.35902344 6.99761719 16.16726562 7.49132812 17 8 C15.62367318 12.12898047 13.64013752 12.63749849 9.8828125 14.7578125 C9.26985321 15.1063327 8.65689392 15.45485291 8.02536011 15.81393433 C6.72814397 16.5493417 5.4284351 17.28036673 4.12646484 18.00732422 C2.13498335 19.11942501 0.15095955 20.24393558 -1.83203125 21.37109375 C-11.48804948 26.82934983 -11.48804948 26.82934983 -15 28 C-13.60582632 24.29102741 -11.92181521 20.92161688 -9.9609375 17.48046875 C-9.09082031 15.9480957 -9.09082031 15.9480957 -8.203125 14.38476562 C-7.59984375 13.32966797 -6.9965625 12.27457031 -6.375 11.1875 C-5.76398438 10.11306641 -5.15296875 9.03863281 -4.5234375 7.93164062 C-3.01844115 5.28613924 -1.51054209 2.6423375 0 0 Z " fill="#DB475C" transform="translate(172,268)"/>
<path d="M0 0 C6.27 0 12.54 0 19 0 C14.77901714 8.67646477 10.44790088 17.17852794 5.5625 25.5 C5.12566895 26.24757568 4.68883789 26.99515137 4.23876953 27.76538086 C3.19069783 29.52936552 2.09978506 31.26778494 1 33 C0.67 33 0.34 33 0 33 C0 22.11 0 11.22 0 0 Z " fill="#FED121" transform="translate(78,242)"/>
</svg>
